<svg width="18" height="17" viewBox="0 0 18 17" fill="none" xmlns="http://www.w3.org/2000/svg">
<path d="M8.52441 1.08203C8.67409 0.621379 9.32591 0.621373 9.47559 1.08203L10.7695 5.06445C10.9704 5.68244 11.5465 6.10059 12.1963 6.10059H16.3838C16.8681 6.10059 17.0694 6.72013 16.6777 7.00488L13.29 9.4668C12.7644 9.84871 12.5444 10.5256 12.7451 11.1436L14.0391 15.127C14.1884 15.5875 13.6613 15.9702 13.2695 15.6855L9.88184 13.2246C9.3561 12.8426 8.64389 12.8426 8.11816 13.2246L4.73047 15.6855C4.33869 15.9702 3.81157 15.5875 3.96094 15.127L5.25488 11.1436C5.45556 10.5256 5.23562 9.84871 4.70996 9.4668L1.32227 7.00488C0.930604 6.72014 1.13191 6.10059 1.61621 6.10059H5.80371C6.45352 6.10059 7.02963 5.68244 7.23047 5.06445L8.52441 1.08203Z" stroke="black"/>
</svg>
